# xmcd
# Track frame offsets:
# 150
# 21068
# 37753
# 58640
#
# Disc length: 797 seconds
# Revision: 0
# Processed by: cddbd v1.4PL0 Copyright (c) Steve Scherf et al.
# Submitted via: VisiTrax 2.9.5.181 - For more info visit www.synapsa.com
#
DISCID=24031b04
DTITLE=Isaac Hayes - Theme From Shaft
DYEAR=1900
DGENRE=R and B
TTITLE0=Album Version
TTITLE1=Edit
TTITLE2=Instrumental
TTITLE3=Intro
EXTD=
EXTT0=
EXTT1=
EXTT2=
EXTT3=
PLAYORDER=
